<svg version="1.1" viewBox="0.0 0.0 404.15223097112863 310.3543307086614" fill="none" stroke="none" stroke-linecap="square" stroke-miterlimit="10" xmlns:xlink="http://www.w3.org/1999/xlink" xmlns="http://www.w3.org/2000/svg"><clipPath id="p.0"><path d="m0 0l404.15222 0l0 310.35434l-404.15222 0l0 -310.35434z" clip-rule="nonzero"/></clipPath><g clip-path="url(#p.0)"><path fill="#000000" fill-opacity="0.0" d="m0 0l404.15222 0l0 310.35434l-404.15222 0z" fill-rule="evenodd"/><path fill="#cc4125" d="m62.508984 110.367905l36.382816 -27.249832l13.898064 -44.08875l44.97265 -0.0012397766l36.384476 -27.247244l36.38446 27.247244l44.97264 0.0012397766l13.898071 44.08875l36.382812 27.249832l-13.896545 44.090103l13.896545 44.090088l-36.382812 27.249832l-13.898071 44.08876l-44.97264 0.0012512207l-36.38446 27.247223l-36.384476 -27.247223l-44.97265 -0.0012512207l-13.898064 -44.08876l-36.382816 -27.249832l13.896549 -44.090088z" fill-rule="evenodd"/><path stroke="#a61c00" stroke-width="3.0" stroke-linejoin="round" stroke-linecap="butt" d="m62.508984 110.367905l36.382816 -27.249832l13.898064 -44.08875l44.97265 -0.0012397766l36.384476 -27.247244l36.38446 27.247244l44.97264 0.0012397766l13.898071 44.08875l36.382812 27.249832l-13.896545 44.090103l13.896545 44.090088l-36.382812 27.249832l-13.898071 44.08876l-44.97264 0.0012512207l-36.38446 27.247223l-36.384476 -27.247223l-44.97265 -0.0012512207l-13.898064 -44.08876l-36.382816 -27.249832l13.896549 -44.090088z" fill-rule="evenodd"/><path fill="#fff2cc" d="m82.44602 115.63993l30.872505 -23.00595l11.7931595 -37.222393l38.161385 -0.001045227l30.873917 -23.003773l30.873901 23.003773l38.161392 0.001045227l11.793152 37.222393l30.872498 23.00595l-11.79187 37.223534l11.79187 37.223526l-30.872498 23.00595l-11.793152 37.222397l-38.161392 0.0010375977l-30.873901 23.003784l-30.873917 -23.003784l-38.161385 -0.0010375977l-11.7931595 -37.222397l-30.872505 -23.00595l11.79187 -37.223526z" fill-rule="evenodd"/><path fill="#6aa84f" d="m3.191601 169.04462q73.80118 6.7352448 147.60236 8.419052l-49.200783 7.296509q98.40157 4.490158 196.80316 0l-49.20079 -7.296509q73.80116 -1.6838074 147.60237 -8.419052l-49.200806 30.869843l49.200806 23.012054q-49.200806 4.490158 -98.40158 6.7352295l0 8.980316q-98.40158 4.490158 -196.80316 0l0 -8.980316q-49.20079 -2.2450714 -98.40157 -6.7352295l49.200787 -23.012054z" fill-rule="evenodd"/><path fill="#54863f" d="m150.79396 186.44398q49.20079 1.1225281 98.40158 0l0 -8.980316l49.20079 7.296509q-98.40158 4.490158 -196.80316 0l49.200783 -7.296509z" fill-rule="evenodd"/><path fill="#000000" fill-opacity="0.0" d="m3.191601 169.04462q73.80118 6.7352448 147.60236 8.419052l-49.200783 7.296509q98.40157 4.490158 196.80316 0l-49.20079 -7.296509q73.80116 -1.6838074 147.60237 -8.419052l-49.200806 30.869843l49.200806 23.012054q-49.200806 4.490158 -98.40158 6.7352295l0 8.980316q-98.40158 4.490158 -196.80316 0l0 -8.980316q-49.20079 -2.2450714 -98.40157 -6.7352295l49.200787 -23.012054zm98.40157 60.617126l0 -44.901566m196.80316 0l0 44.901566m-147.60237 -52.198074l0 8.980316m98.40158 0l0 -8.980316" fill-rule="evenodd"/><path stroke="#134f5c" stroke-width="2.0" stroke-linejoin="round" stroke-linecap="butt" d="m3.191601 169.04462q73.80118 6.7352448 147.60236 8.419052l-49.200783 7.296509q98.40157 4.490158 196.80316 0l-49.20079 -7.296509q73.80116 -1.6838074 147.60237 -8.419052l-49.200806 30.869843l49.200806 23.012054q-49.200806 4.490158 -98.40158 6.7352295l0 8.980316q-98.40158 4.490158 -196.80316 0l0 -8.980316q-49.20079 -2.2450714 -98.40157 -6.7352295l49.200787 -23.012054zm98.40157 60.617126l0 -44.901566m196.80316 0l0 44.901566m-147.60237 -52.198074l0 8.980316m98.40158 0l0 -8.980316" fill-rule="evenodd"/><path fill="#fff2cc" d="m119.91272 221.36366l0 -17.1875l5.1875 0l3.125 11.71875l3.078125 -11.71875l5.203125 0l0 17.1875l-3.21875 0l0 -13.53125l-3.421875 13.53125l-3.328125 0l-3.40625 -13.53125l0 13.53125l-3.21875 0zm19.335938 -8.484375q0 -2.625 0.78125 -4.40625q0.59375 -1.3125 1.59375 -2.359375q1.015625 -1.046875 2.234375 -1.546875q1.59375 -0.671875 3.703125 -0.671875q3.796875 0 6.0625 2.359375q2.28125 2.34375 2.28125 6.546875q0 4.15625 -2.265625 6.515625q-2.25 2.34375 -6.03125 2.34375q-3.84375 0 -6.109375 -2.34375q-2.25 -2.34375 -2.25 -6.4375zm3.578125 -0.125q0 2.921875 1.34375 4.4375q1.34375 1.5 3.421875 1.5q2.078125 0 3.40625 -1.484375q1.328125 -1.5 1.328125 -4.5q0 -2.953125 -1.296875 -4.40625q-1.296875 -1.453125 -3.4375 -1.453125q-2.140625 0 -3.453125 1.484375q-1.3125 1.46875 -1.3125 4.421875zm15.824219 8.609375l0 -17.1875l3.375 0l7.03125 11.484375l0 -11.484375l3.21875 0l0 17.1875l-3.46875 0l-6.9375 -11.203125l0 11.203125l-3.21875 0zm17.300781 0l0 -17.1875l12.734375 0l0 2.90625l-9.265625 0l0 3.8125l8.625 0l0 2.890625l-8.625 0l0 4.6875l9.59375 0l0 2.890625l-13.0625 0zm20.523438 0l0 -7.234375l-6.296875 -9.953125l4.0625 0l4.046875 6.796875l3.953125 -6.796875l4.0 0l-6.3125 9.984375l0 7.203125l-3.453125 0zm17.742188 -17.1875l6.859375 0q2.046875 0 3.046875 0.171875q1.0 0.171875 1.78125 0.71875q0.796875 0.53125 1.328125 1.4375q0.53125 0.890625 0.53125 2.0q0 1.203125 -0.65625 2.21875q-0.65625 1.0 -1.765625 1.515625q1.578125 0.453125 2.421875 1.5625q0.84375 1.09375 0.84375 2.578125q0 1.171875 -0.546875 2.28125q-0.546875 1.109375 -1.5 1.78125q-0.9375 0.65625 -2.3125 0.796875q-0.875 0.09375 -4.1875 0.125l-5.84375 0l0 -17.1875zm3.46875 2.859375l0 3.984375l2.265625 0q2.03125 0 2.515625 -0.0625q0.890625 -0.109375 1.40625 -0.609375q0.515625 -0.515625 0.515625 -1.34375q0 -0.796875 -0.453125 -1.296875q-0.4375 -0.5 -1.296875 -0.609375q-0.515625 -0.0625 -2.96875 -0.0625l-1.984375 0zm0 6.84375l0 4.59375l3.203125 0q1.875 0 2.375 -0.109375q0.78125 -0.140625 1.265625 -0.6875q0.484375 -0.546875 0.484375 -1.453125q0 -0.78125 -0.375 -1.3125q-0.375 -0.546875 -1.09375 -0.78125q-0.703125 -0.25 -3.0625 -0.25l-2.796875 0zm29.332031 7.484375l-3.765625 0l-1.5 -3.90625l-6.875 0l-1.40625 3.90625l-3.6875 0l6.6875 -17.1875l3.671875 0l6.875 17.1875zm-6.375 -6.796875l-2.375 -6.375l-2.3125 6.375l4.6875 0zm19.207031 0.484375l3.375 1.0625q-0.78125 2.8125 -2.578125 4.1875q-1.796875 1.359375 -4.5625 1.359375q-3.421875 0 -5.625 -2.34375q-2.203125 -2.34375 -2.203125 -6.390625q0 -4.296875 2.203125 -6.65625q2.21875 -2.375 5.828125 -2.375q3.15625 0 5.125 1.859375q1.171875 1.09375 1.765625 3.15625l-3.4375 0.828125q-0.3125 -1.34375 -1.28125 -2.109375q-0.953125 -0.78125 -2.34375 -0.78125q-1.90625 0 -3.09375 1.375q-1.1875 1.375 -1.1875 4.4375q0 3.265625 1.171875 4.65625q1.171875 1.375 3.046875 1.375q1.375 0 2.375 -0.875q1.0 -0.890625 1.421875 -2.765625zm6.3945312 6.3125l0 -17.1875l3.46875 0l0 7.640625l7.0 -7.640625l4.671875 0l-6.46875 6.703125l6.8125 10.484375l-4.484375 0l-4.71875 -8.0625l-2.8125 2.875l0 5.1875l-3.46875 0z" fill-rule="nonzero"/><path fill="#a61c00" d="m164.09521 154.80753c1.6794281 0 3.0926056 0.52693176 4.2395325 1.5808258c1.1469116 1.0538788 1.7203827 2.707016 1.7203827 4.959427c0 2.0457764 -0.5643616 3.5680542 -1.6930847 4.566818c-1.1241608 0.9953308 -2.4918213 1.4930115 -4.1029816 1.4930115c-1.5974884 0 -2.983368 -0.5217743 -4.157593 -1.5653229c-1.1742249 -1.0435486 -1.7613525 -2.619217 -1.7613525 -4.7269745c0 -2.1800842 0.5484314 -3.776413 1.6452942 -4.7889557c1.1014099 -1.012558 2.471344 -1.5188293 4.1098022 -1.5188293zm5.6526947 -8.198578l0 8.152084c-0.64172363 -0.67160034 -1.4746094 -1.2157593 -2.498642 -1.6324921c-1.0240479 -0.42016602 -2.191452 -0.6302643 -3.5022125 -0.6302643c-1.7886658 0 -3.4066467 0.35646057 -4.853943 1.0693817c-1.4473114 0.71292114 -2.5327911 1.7392578 -3.2564545 3.0789948c-0.7236481 1.3362885 -1.0854797 2.8258514 -1.0854797 4.4686584c0 1.6841431 0.39823914 3.175415 1.1947174 4.473831c0.8010254 1.2949677 1.927475 2.3040771 3.3793335 3.0273285c1.4564056 0.72325134 3.0516205 1.0848694 4.78566 1.0848694c2.6761627 0 4.7037506 -0.8162384 6.082794 -2.4487152l0 2.076767l3.420288 0l0 -22.720444z" fill-rule="evenodd"/><path fill="#a61c00" d="m193.096 161.06882l0 1.0228882c0 1.2295227 -0.19798279 2.1594238 -0.5939331 2.789688c-0.51885986 0.8162384 -1.331253 1.4602661 -2.4372253 1.9321136c-1.105957 0.4683838 -2.3689423 0.7025757 -3.7889404 0.7025757c-1.4336548 0 -2.5236816 -0.24797058 -3.2700958 -0.74391174c-0.7418518 -0.49594116 -1.112793 -1.1158752 -1.112793 -1.859787c0 -0.48561096 0.17068481 -0.92645264 0.5120239 -1.322525c0.34135437 -0.39950562 0.82606506 -0.7025757 1.4541321 -0.90922546c0.6280823 -0.20663452 1.6999054 -0.3926239 3.2154846 -0.5579376c2.6761627 -0.28929138 4.6832733 -0.6405945 6.021347 -1.0538788zm-4.690094 -8.570541c-1.870575 0 -3.5158691 0.19459534 -4.9358673 0.58377075c-1.4199982 0.3857422 -2.505478 0.9385071 -3.2564392 1.6583099c-0.7509613 0.7163696 -1.2902985 1.6583252 -1.617981 2.8258514l3.6046143 0.3719635c0.39596558 -1.1675415 1.0058289 -1.9803314 1.8296204 -2.4384003c0.82832336 -0.46150208 2.1095123 -0.6922455 3.8435516 -0.6922455c1.8569183 0 3.2564392 0.3151245 4.1985626 0.9453888c0.69633484 0.46495056 1.0445099 1.265686 1.0445099 2.402237c0 0.10331726 -0.0068206787 0.3461151 -0.020477295 0.7284088c-1.4063416 0.3719635 -3.5977936 0.69226074 -6.5743256 0.9608917c-1.460968 0.13432312 -2.5532684 0.2738037 -3.2769165 0.41845703c-0.983078 0.20663452 -1.8683167 0.5114441 -2.6556854 0.9143982c-0.78282166 0.4029541 -1.4177246 0.9385071 -1.9047089 1.6066437c-0.48243713 0.66470337 -0.7236481 1.4000092 -0.7236481 2.2059174c0 1.3741913 0.64172363 2.50383 1.9251862 3.3889618c1.2834625 0.8816681 3.1199036 1.3225098 5.509323 1.3225098c1.4473114 0 2.8013153 -0.18081665 4.062027 -0.5424347c1.2652588 -0.3616333 2.5805817 -0.9815521 3.9459686 -1.859787c0.10922241 0.77490234 0.35499573 1.4516602 0.7373047 2.0302734l3.8503876 0c-0.4642334 -0.6302643 -0.776001 -1.2880859 -0.9352875 -1.9734497c-0.15475464 -0.68881226 -0.2321167 -2.3299103 -0.2321167 -4.923279l0 -3.719574c0 -1.2398682 -0.061447144 -2.0974426 -0.18432617 -2.5727234c-0.21847534 -0.76457214 -0.60076904 -1.3965607 -1.1469269 -1.8959503c-0.54615784 -0.5028229 -1.3995209 -0.91955566 -2.5601044 -1.2501831c-1.1605682 -0.33062744 -2.6693268 -0.49595642 -4.526245 -0.49595642z" fill-rule="evenodd"/><path fill="#a61c00" d="m200.4486 152.87024l8.253754 16.490143c-0.15019226 0.29963684 -0.25942993 0.526947 -0.32769775 0.6819153c-0.5188446 1.105545 -0.8943329 1.7978058 -1.1264343 2.076767c-0.31404114 0.3719635 -0.7168274 0.66127014 -1.208374 0.86790466c-0.49153137 0.20664978 -1.1469269 0.30996704 -1.966156 0.30996704c-0.60076904 0 -1.3039398 -0.08265686 -2.1095123 -0.24797058l0 0l0.40960693 2.6192017c0.8738556 0.22731018 1.6657715 0.34095764 2.3757782 0.34095764c1.1742249 0 2.184616 -0.21524048 3.0311584 -0.64575195c0.8465271 -0.427063 1.5974884 -1.1003723 2.252884 -2.0199432c0.49153137 -0.6819153 1.1810455 -1.9269409 2.0685577 -3.735077l8.274231 -16.738113l-3.6865387 0l-4.6491394 9.593414c-0.5871124 1.2192078 -1.0923157 2.4693909 -1.5155792 3.7505798c-0.4642334 -1.33284 -0.9898987 -2.6036987 -1.5770264 -3.812561l-4.526245 -9.531433z" fill-rule="evenodd"/><path fill="#a61c00" d="m230.65773 152.49828c-1.1332703 0 -2.1959991 0.11193848 -3.1881714 0.33580017c-0.9876251 0.22042847 -1.7681732 0.4907837 -2.341629 0.81108093c-0.7646179 0.4132843 -1.3699493 0.93333435 -1.8159637 1.5601501c-0.44148254 0.62338257 -0.6622162 1.3018646 -0.6622162 2.0354462c0 0.8059082 0.26852417 1.5429382 0.8055725 2.2110748c0.5416107 0.66470337 1.3335266 1.1864777 2.3757782 1.5653229c1.0467834 0.375412 2.9219208 0.82141113 5.6253815 1.338028c2.0071106 0.38227844 3.2632751 0.6974182 3.7684631 0.9453888c0.7236481 0.36161804 1.0854797 0.85757446 1.0854797 1.4878235c0 0.70259094 -0.4096222 1.315628 -1.2288513 1.8391266c-0.8192291 0.52005005 -2.0753784 0.78009033 -3.7684631 0.78009033c-1.6794128 0 -2.987915 -0.29447937 -3.925476 -0.8834076c-0.9330139 -0.5889282 -1.5019226 -1.4361725 -1.7067261 -2.5417175l-3.645584 0.43395996c0.4096222 1.7461395 1.3540039 3.0634766 2.8331757 3.952057c1.4837189 0.88856506 3.6387482 1.33284 6.465103 1.33284c1.7067261 0 3.235962 -0.2238617 4.5876923 -0.6715851c1.3517303 -0.45117188 2.3848724 -1.0866089 3.099411 -1.9062805c0.7191162 -0.8231354 1.078659 -1.699646 1.078659 -2.629547c0 -0.9505615 -0.29356384 -1.7461395 -0.88067627 -2.386734c-0.5871124 -0.6405945 -1.397232 -1.1279297 -2.4303741 -1.4619904c-1.028595 -0.3375244 -2.8468323 -0.76976013 -5.454712 -1.2966919c-1.8023224 -0.3719635 -2.8878021 -0.6096039 -3.2564545 -0.71292114c-0.64172363 -0.19630432 -1.1127777 -0.4442749 -1.4131622 -0.74391174c-0.30038452 -0.28930664 -0.45057678 -0.61476135 -0.45057678 -0.97639465c0 -0.5682678 0.3618164 -1.064209 1.0854797 -1.4878235c0.7236481 -0.42362976 1.9320068 -0.635437 3.6250916 -0.635437c1.4336548 0 2.5418854 0.23764038 3.324707 0.71292114c0.78738403 0.47528076 1.2629852 1.1365356 1.4268341 1.9837799l3.6046143 -0.3719635c-0.2321167 -1.064209 -0.65538025 -1.9131775 -1.2698059 -2.546875c-0.61442566 -0.637146 -1.5679169 -1.1417084 -2.860489 -1.5136719c-1.2880096 -0.37194824 -2.7853851 -0.5579376 -4.492111 -0.5579376z" fill-rule="evenodd"/><path fill="#e69138" d="m105.80577 118.0807l11.705643 8.392334E-5l3.6171646 -12.198906l3.6171646 12.198906l11.705643 -8.392334E-5l-9.470108 7.539253l3.6173096 12.198845l-9.470009 -7.539383l-9.4700165 7.539383l3.6173172 -12.198845z" fill-rule="evenodd"/><path stroke="#cc4125" stroke-width="1.0" stroke-linejoin="round" stroke-linecap="butt" d="m105.80577 118.0807l11.705643 8.392334E-5l3.6171646 -12.198906l3.6171646 12.198906l11.705643 -8.392334E-5l-9.470108 7.539253l3.6173096 12.198845l-9.470009 -7.539383l-9.4700165 7.539383l3.6173172 -12.198845z" fill-rule="evenodd"/><path fill="#e69138" d="m247.2601 118.0807l11.705627 8.392334E-5l3.6171875 -12.198906l3.617157 12.198906l11.705627 -8.392334E-5l-9.470093 7.539253l3.6173096 12.198845l-9.470001 -7.539383l-9.4700165 7.539383l3.6173248 -12.198845z" fill-rule="evenodd"/><path stroke="#cc4125" stroke-width="1.0" stroke-linejoin="round" stroke-linecap="butt" d="m247.2601 118.0807l11.705627 8.392334E-5l3.6171875 -12.198906l3.617157 12.198906l11.705627 -8.392334E-5l-9.470093 7.539253l3.6173096 12.198845l-9.470001 -7.539383l-9.4700165 7.539383l3.6173248 -12.198845z" fill-rule="evenodd"/><path fill="#e69138" d="m136.45145 77.53739l11.705627 9.1552734E-5l3.6171722 -12.198906l3.6171722 12.198906l11.705627 -9.1552734E-5l-9.470108 7.539253l3.6173248 12.19886l-9.4700165 -7.539398l-9.4700165 7.539398l3.6173248 -12.19886z" fill-rule="evenodd"/><path stroke="#cc4125" stroke-width="1.0" stroke-linejoin="round" stroke-linecap="butt" d="m136.45145 77.53739l11.705627 9.1552734E-5l3.6171722 -12.198906l3.6171722 12.198906l11.705627 -9.1552734E-5l-9.470108 7.539253l3.6173248 12.19886l-9.4700165 -7.539398l-9.4700165 7.539398l3.6173248 -12.19886z" fill-rule="evenodd"/><path fill="#e69138" d="m178.82414 66.90222l11.705643 9.1552734E-5l3.617157 -12.19891l3.6171722 12.19891l11.705643 -9.1552734E-5l-9.470108 7.539253l3.6173096 12.198853l-9.4700165 -7.5393906l-9.470001 7.5393906l3.6173096 -12.198853z" fill-rule="evenodd"/><path stroke="#cc4125" stroke-width="1.0" stroke-linejoin="round" stroke-linecap="butt" d="m178.82414 66.90222l11.705643 9.1552734E-5l3.617157 -12.19891l3.6171722 12.19891l11.705643 -9.1552734E-5l-9.470108 7.539253l3.6173096 12.198853l-9.4700165 -7.5393906l-9.470001 7.5393906l3.6173096 -12.198853z" fill-rule="evenodd"/><path fill="#e69138" d="m216.61417 77.53739l11.705643 9.1552734E-5l3.6171722 -12.198906l3.617157 12.198906l11.705643 -9.1552734E-5l-9.470108 7.539253l3.6173096 12.19886l-9.470001 -7.539398l-9.4700165 7.539398l3.6173096 -12.19886z" fill-rule="evenodd"/><path stroke="#cc4125" stroke-width="1.0" stroke-linejoin="round" stroke-linecap="butt" d="m216.61417 77.53739l11.705643 9.1552734E-5l3.6171722 -12.198906l3.617157 12.198906l11.705643 -9.1552734E-5l-9.470108 7.539253l3.6173096 12.19886l-9.470001 -7.539398l-9.4700165 7.539398l3.6173096 -12.19886z" fill-rule="evenodd"/><path fill="#a61c00" d="m176.99832 120.250626c2.5445404 0 4.654663 0.7211914 6.3303375 2.1635742c1.6756897 1.4369049 2.5135193 3.4057922 2.5135193 5.906662c0 2.5995789 -0.84817505 4.6562195 -2.5445404 6.1698914c-1.6963654 1.5136871 -3.7237396 2.270523 -6.0821075 2.270523c-1.613617 0 -3.154831 -0.36470032 -4.6236267 -1.0941315c-1.468811 -0.7348938 -2.6135101 -1.8016052 -3.4341125 -3.200119c-0.81370544 -1.3985138 -1.2205505 -2.8628235 -1.2205505 -4.3929596c0 -2.3363419 0.8792114 -4.2229614 2.6376343 -5.6598663c1.7584381 -1.4423828 3.899582 -2.1635742 6.4234467 -2.1635742zm0.8378296 -16.782135c-4.799469 0 -8.6163025 1.3820572 -11.45047 4.1461716c-3.2479248 3.1754456 -4.871887 8.259445 -4.871887 15.251999c0 6.2521744 1.468811 10.741112 4.406418 13.466835c2.9376068 2.7202454 6.7337494 4.080368 11.388412 4.080368c2.7307434 0 5.1718597 -0.51828 7.323349 -1.5548096c2.1514893 -1.0365448 3.8409576 -2.5282898 5.068405 -4.475235c1.2343597 -1.9524384 1.851532 -4.063919 1.851532 -6.334442c0 -3.4551392 -1.3102112 -6.2713623 -3.930603 -8.448647c-2.6135101 -2.1827774 -5.782135 -3.2741623 -9.505875 -3.2741623c-2.1307983 0 -4.168503 0.39487457 -6.1131287 1.1846161c-1.9446106 0.78974915 -3.589264 1.999054 -4.9339447 3.6279068c0.041381836 -3.6196747 0.5689087 -6.40847 1.5825958 -8.366386c1.0136719 -1.9579163 2.3997345 -3.4469223 4.1581573 -4.4670105c1.3446808 -0.78974915 2.9065857 -1.1846237 4.6856995 -1.1846237c2.213562 0 4.075424 0.63344574 5.585602 1.9003296c0.9102478 0.78974915 1.613617 2.056633 2.1101227 3.8006592l5.5545654 -0.3455124c-0.4551239 -2.8134766 -1.8273926 -5.0181885 -4.116791 -6.6141357c-2.2825165 -1.5959473 -5.2132263 -2.393921 -8.79216 -2.393921z" fill-rule="evenodd"/><path fill="#a61c00" d="m211.87729 107.14575c2.6066132 0 4.7822266 0.97895813 6.5268707 2.9368744c1.7515259 1.9579163 2.627304 5.914879 2.627304 11.870888c0 5.923111 -0.8757782 9.871849 -2.627304 11.846214c-1.7446442 1.9743652 -3.899582 2.9615479 -6.464813 2.9615479c-2.5652466 0 -4.723633 -0.98168945 -6.4751587 -2.9450989c-1.7446442 -1.9688873 -2.6169586 -5.9231033 -2.6169586 -11.862663c0 -5.9395523 0.96195984 -10.011688 2.8858948 -12.2164c1.5308685 -1.7275772 3.5789185 -2.591362 6.144165 -2.591362zm0.062057495 -3.6772614c-3.3099823 0 -6.057968 0.7074814 -8.243927 2.1224442c-2.1790771 1.4149704 -3.8237305 3.4277267 -4.9339447 6.0382767c-1.1033325 2.605072 -1.6549988 6.046509 -1.6549988 10.324303c0 6.795128 1.4998322 11.698143 4.4995117 14.709053c2.5031738 2.5008545 5.947632 3.751297 10.333359 3.751297c3.3306732 0 6.085541 -0.71022034 8.264618 -2.1306763c2.1859741 -1.4259338 3.8271637 -3.4414368 4.9235992 -6.046509c1.0964355 -2.61055 1.6446533 -6.038269 1.6446533 -10.283165c0 -3.586769 -0.3413391 -6.43589 -1.0240326 -8.547371c-0.6826782 -2.1169586 -1.6239624 -3.9103394 -2.823822 -5.38015c-1.1998749 -1.475296 -2.720398 -2.6023254 -4.5615845 -3.3811035c-1.8411713 -0.7842636 -3.982315 -1.1763992 -6.4234314 -1.1763992z" fill-rule="evenodd"/></g></svg>